<?xml version="1.0" encoding="UTF-8"?>
<svg id="Layer_2" data-name="Layer 2" xmlns="http://www.w3.org/2000/svg" viewBox="0 0 33.89 24.29">
  <defs>
    <style>
      .cls-1 {
        fill: #9c0d38;
      }

      .cls-2 {
        fill: #6574a2;
      }

      .cls-3 {
        fill: #f86624;
      }
    </style>
  </defs>
  <g id="Layer_1-2" data-name="Layer 1">
    <g>
      <path class="cls-1" d="M18.12,8.09l2.84-2.9s.12-.06.18-.04l4.11,1.78c.06.03.1.09.1.16l-.28,4.95c0,.06-.05.12-.11.14l-2.46.86c-.06.02-.13,0-.17-.04l-4.21-4.69c-.06-.06-.05-.16,0-.22Z"/>
      <path class="cls-1" d="M16.02,15.48l2.92,1.59c.07.04.11.13.07.21l-1.98,4.37c-.03.06-.08.1-.15.1h-4.08c-.08,0-.14-.05-.16-.13l-.53-2.37c-.01-.05,0-.11.04-.15l3.66-3.59c.05-.05.13-.06.19-.03Z"/>
      <path class="cls-3" d="M16.19,11.25l-3.73-3.09c-.07-.06-.17-.04-.23.03l-2.57,3.51c-.04.05-.04.13,0,.18l2.41,3.35c.06.08.17.09.24.02l3.88-3.78c.07-.06.06-.17,0-.23Z"/>
      <path class="cls-2" d="M17.94,3.98l-2.15,2.9c-.04.06-.12.08-.19.06l-2.94-1.14c-.06-.02-.1-.09-.1-.15V1.82c0-.06.03-.11.07-.14L15.15.03c.07-.05.17-.03.22.04l2.57,3.72c.04.06.04.13,0,.19Z"/>
      <path class="cls-1" d="M6.74,8.02L.96,7c-.07-.01-.14.02-.18.09L.01,8.77s-.02.1,0,.15l2.07,3.51s.08.08.14.08h2.6c.06,0,.12-.04.15-.1l1.88-4.17c.04-.1-.02-.21-.12-.23Z"/>
      <path class="cls-3" d="M10.54,5.92v-2.34c0-.06-.04-.12-.09-.15L5.82,1.2c-.05-.03-.12-.02-.17.02l-2.23,1.69s-.06.08-.06.13v1.65c0,.08.06.15.13.16l6.86,1.23c.1.02.19-.06.19-.16Z"/>
      <path class="cls-2" d="M27.73,6.72l-.61,4.82c-.01.1.06.18.16.18h3.52c.06,0,.12-.04.15-.09l2.35-4.9c.03-.06.02-.14-.03-.19l-1.35-1.35s-.11-.06-.17-.04l-3.9,1.44c-.06.02-.1.07-.11.13Z"/>
      <path class="cls-2" d="M23.3,15.9h-1.75c-.06,0-.11.03-.14.08l-2.28,4.15s-.03.11,0,.15l.99,1.78c.03.05.08.08.14.08h2.77c.08,0,.15-.07.16-.15l.27-5.93c0-.09-.07-.17-.16-.17Z"/>
      <path class="cls-3" d="M25.79,18.49l1.72,3.07s.03.1,0,.15l-1.33,2.58h-1.15l.46-5.74c.01-.15.22-.2.29-.06Z"/>
      <path class="cls-1" d="M27.67,15.42h3.21s.09.02.12.06l2.85,3.4s.04.09.03.14l-.58,2.5c-.03.11-.15.16-.25.1l-2.55-1.65s-.03-.03-.05-.04l-2.93-4.25c-.07-.11,0-.25.13-.25Z"/>
      <path class="cls-2" d="M6.63,13.41l-2.47.8c-.05.02-.09.06-.11.11l-.65,2.4c-.02.09.03.19.13.2l6.44,1.19v-.79l-3.16-3.86c-.04-.05-.11-.07-.18-.05Z"/>
      <path class="cls-3" d="M11.06,22.66c-2.5-.77-5.01-1.54-7.51-2.31-.12-.04-.15-.18-.06-.26l1.53-1.44s.12-.06.18-.03l5.59,2.77s.08.07.09.12c.06.39.13.77.19,1.16"/>
    </g>
  </g>
</svg>